<svg width="766" height="557" viewBox="0 0 766 557" fill="none" xmlns="http://www.w3.org/2000/svg">
<g clip-path="url(#clip0_14132_13167)">
<path d="M57.7247 80.2549H7.78058C6.8862 80.2548 6.00055 80.4308 5.17422 80.773C4.34788 81.1152 3.59705 81.6168 2.96459 82.2492C2.33213 82.8816 1.83044 83.6324 1.48815 84.4587C1.14586 85.285 0.969666 86.1706 0.969666 87.065V137.009C0.969666 138.815 1.68724 140.548 2.96454 141.825C4.24183 143.102 5.97421 143.82 7.78058 143.82H57.7247C59.5309 143.82 61.2631 143.102 62.5402 141.825C63.8173 140.548 64.5348 138.815 64.5348 137.009V87.065C64.5348 85.2588 63.8173 83.5266 62.5402 82.2495C61.263 80.9724 59.5309 80.2549 57.7247 80.2549Z" stroke="#B5BAC4" stroke-opacity="0.15" stroke-width="0.783"/>
<path d="M446.899 79.9309H396.955C395.062 79.9309 393.247 80.6826 391.909 82.0207C390.571 83.3588 389.82 85.1736 389.82 87.0659V137.01C389.82 138.902 390.571 140.717 391.909 142.055C393.247 143.393 395.062 144.145 396.955 144.145H446.899C448.791 144.145 450.606 143.393 451.944 142.055C453.282 140.717 454.034 138.902 454.034 137.01V87.0659C454.034 85.1736 453.282 83.3588 451.944 82.0207C450.606 80.6826 448.791 79.9309 446.899 79.9309Z" fill="#B5BAC4" fill-opacity="0.04"/>
<path d="M758.237 79.9309H708.297C707.359 79.9305 706.431 80.1147 705.565 80.4731C704.699 80.8315 703.913 81.357 703.25 82.0196C702.587 82.6822 702.061 83.4689 701.703 84.3348C701.344 85.2007 701.16 86.1287 701.16 87.0659V137.01C701.16 137.947 701.344 138.875 701.703 139.741C702.061 140.607 702.587 141.394 703.25 142.056C703.913 142.719 704.699 143.244 705.565 143.603C706.431 143.961 707.359 144.145 708.297 144.145H758.237C762.182 144.145 765.373 140.951 765.373 137.01V87.0659C765.373 86.1287 765.189 85.2007 764.831 84.3348C764.472 83.4689 763.946 82.6822 763.283 82.0196C762.621 81.357 761.834 80.8315 760.968 80.4731C760.102 80.1147 759.174 79.9305 758.237 79.9309Z" fill="#B5BAC4" fill-opacity="0.06"/>
<path d="M57.7247 162.38H7.78058C5.88826 162.38 4.07346 163.132 2.73539 164.47C1.39732 165.808 0.645584 167.623 0.645584 169.515V219.46C0.645584 220.396 0.83015 221.324 1.18873 222.19C1.5473 223.055 2.07288 223.842 2.73544 224.504C3.398 225.167 4.18454 225.692 5.0502 226.051C5.91585 226.409 6.84364 226.594 7.78058 226.594H57.7247C58.6617 226.594 59.5895 226.409 60.4551 226.051C61.3208 225.692 62.1073 225.167 62.7699 224.504C63.4324 223.842 63.958 223.055 64.3166 222.19C64.6752 221.324 64.8597 220.396 64.8597 219.46V169.515C64.8597 167.623 64.108 165.808 62.7699 164.47C61.4319 163.132 59.6171 162.38 57.7247 162.38Z" fill="#B5BAC4" fill-opacity="0.12"/>
<path d="M135.56 162.38H85.6157C83.7234 162.38 81.9086 163.132 80.5705 164.47C79.2324 165.808 78.4807 167.623 78.4807 169.515V219.46C78.4807 220.396 78.6653 221.324 79.0238 222.19C79.3824 223.055 79.908 223.842 80.5706 224.504C81.2331 225.167 82.0197 225.692 82.8853 226.051C83.751 226.409 84.6788 226.594 85.6157 226.594H135.56C136.497 226.594 137.425 226.409 138.29 226.051C139.156 225.692 139.942 225.167 140.605 224.504C141.268 223.842 141.793 223.055 142.152 222.19C142.51 221.324 142.695 220.396 142.695 219.46V169.515C142.695 167.623 141.943 165.808 140.605 164.47C139.267 163.132 137.452 162.38 135.56 162.38Z" fill="#B5BAC4" fill-opacity="0.05"/>
<path d="M213.395 162.704H163.451C161.644 162.704 159.912 163.422 158.635 164.699C157.358 165.977 156.64 167.709 156.64 169.515V219.459C156.64 221.266 157.358 222.998 158.635 224.275C159.912 225.553 161.644 226.27 163.451 226.27H213.395C214.289 226.27 215.175 226.094 216.001 225.752C216.828 225.41 217.578 224.908 218.211 224.275C218.843 223.643 219.345 222.892 219.687 222.066C220.029 221.239 220.205 220.354 220.205 219.459V169.515C220.205 168.621 220.029 167.735 219.687 166.909C219.345 166.083 218.843 165.332 218.211 164.699C217.578 164.067 216.828 163.565 216.001 163.223C215.175 162.881 214.289 162.704 213.395 162.704Z" stroke="#B5BAC4" stroke-opacity="0.15" stroke-width="0.783"/>
<path d="M369.064 162.38H319.12C317.228 162.38 315.413 163.132 314.075 164.47C312.737 165.808 311.985 167.623 311.985 169.515V219.46C311.985 220.396 312.17 221.324 312.528 222.19C312.887 223.055 313.413 223.842 314.075 224.504C314.738 225.167 315.524 225.692 316.39 226.051C317.256 226.409 318.183 226.594 319.12 226.594H369.064C370.001 226.594 370.929 226.409 371.795 226.051C372.66 225.692 373.447 225.167 374.11 224.504C374.772 223.842 375.298 223.055 375.656 222.19C376.015 221.324 376.199 220.396 376.199 219.46V169.515C376.199 167.623 375.448 165.808 374.11 164.47C372.771 163.132 370.957 162.38 369.064 162.38Z" fill="black" fill-opacity="0.16"/>
<g clip-path="url(#clip1_14132_13167)">
<path d="M342.995 171.39C342.896 171.399 342.582 171.43 342.299 171.453C335.772 172.041 329.659 175.563 325.787 180.975C323.631 183.985 322.252 187.399 321.731 191.015C321.547 192.277 321.525 192.649 321.525 194.361C321.525 196.072 321.547 196.445 321.731 197.707C322.98 206.336 329.12 213.586 337.448 216.272C338.939 216.752 340.511 217.08 342.299 217.278C342.995 217.354 346.005 217.354 346.701 217.278C349.787 216.936 352.401 216.173 354.979 214.857C355.374 214.655 355.451 214.601 355.397 214.556C355.361 214.529 353.677 212.269 351.655 209.538L347.981 204.575L343.377 197.761C340.844 194.015 338.759 190.952 338.741 190.952C338.723 190.947 338.706 193.975 338.697 197.671C338.683 204.144 338.679 204.404 338.598 204.557C338.481 204.777 338.391 204.867 338.202 204.966C338.059 205.038 337.933 205.051 337.255 205.051H336.478L336.271 204.921C336.136 204.836 336.037 204.723 335.97 204.593L335.876 204.391L335.885 195.385L335.898 186.375L336.037 186.199C336.109 186.105 336.262 185.984 336.37 185.925C336.554 185.836 336.626 185.827 337.403 185.827C338.319 185.827 338.472 185.862 338.71 186.123C338.777 186.195 341.27 189.95 344.253 194.473C347.235 198.996 351.314 205.173 353.317 208.204L356.956 213.716L357.14 213.595C358.77 212.534 360.495 211.025 361.86 209.453C364.767 206.116 366.64 202.046 367.269 197.707C367.453 196.445 367.475 196.072 367.475 194.361C367.475 192.649 367.453 192.277 367.269 191.015C366.02 182.386 359.88 175.136 351.552 172.45C350.083 171.974 348.52 171.646 346.768 171.448C346.337 171.404 343.368 171.354 342.995 171.39ZM352.401 185.288C352.616 185.395 352.792 185.602 352.855 185.818C352.89 185.934 352.899 188.432 352.89 194.06L352.877 202.136L351.453 199.953L350.025 197.77V191.899C350.025 188.104 350.043 185.97 350.07 185.867C350.142 185.615 350.299 185.418 350.514 185.301C350.698 185.207 350.766 185.198 351.471 185.198C352.136 185.198 352.253 185.207 352.401 185.288Z" fill="black"/>
<path d="M356.731 213.815C356.574 213.913 356.525 213.981 356.664 213.904C356.763 213.846 356.925 213.725 356.898 213.72C356.884 213.72 356.808 213.765 356.731 213.815ZM356.421 214.017C356.341 214.08 356.341 214.084 356.439 214.035C356.493 214.008 356.538 213.976 356.538 213.967C356.538 213.931 356.516 213.94 356.421 214.017ZM356.197 214.151C356.116 214.214 356.116 214.219 356.215 214.169C356.269 214.142 356.314 214.111 356.314 214.102C356.314 214.066 356.291 214.075 356.197 214.151ZM355.972 214.286C355.891 214.349 355.891 214.354 355.99 214.304C356.044 214.277 356.089 214.246 356.089 214.237C356.089 214.201 356.067 214.21 355.972 214.286ZM355.631 214.466C355.46 214.556 355.469 214.592 355.64 214.506C355.716 214.466 355.775 214.425 355.775 214.416C355.775 214.385 355.77 214.39 355.631 214.466Z" fill="black"/>
</g>
<path d="M446.9 162.704H396.955C395.149 162.704 393.417 163.422 392.139 164.699C390.862 165.977 390.144 167.709 390.144 169.515V219.459C390.144 221.266 390.862 222.998 392.139 224.275C393.417 225.553 395.149 226.27 396.955 226.27H446.9C447.794 226.27 448.68 226.094 449.506 225.752C450.332 225.41 451.083 224.908 451.715 224.275C452.348 223.643 452.849 222.892 453.191 222.066C453.534 221.239 453.71 220.354 453.71 219.459V169.515C453.71 168.621 453.534 167.735 453.191 166.909C452.849 166.083 452.348 165.332 451.715 164.699C451.083 164.067 450.332 163.565 449.506 163.223C448.68 162.881 447.794 162.704 446.9 162.704Z" stroke="#B5BAC4" stroke-opacity="0.15" stroke-width="0.783"/>
<path d="M524.735 162.38H474.791C472.899 162.38 471.084 163.132 469.746 164.47C468.408 165.808 467.656 167.623 467.656 169.515V219.46C467.656 220.396 467.841 221.324 468.199 222.19C468.558 223.055 469.084 223.842 469.746 224.504C470.409 225.167 471.195 225.692 472.061 226.051C472.927 226.409 473.854 226.594 474.791 226.594H524.735C525.672 226.594 526.6 226.409 527.466 226.051C528.331 225.692 529.118 225.167 529.78 224.504C530.443 223.842 530.968 223.055 531.327 222.19C531.685 221.324 531.87 220.396 531.87 219.46V169.515C531.87 168.578 531.685 167.651 531.327 166.785C530.968 165.919 530.443 165.133 529.78 164.47C529.118 163.808 528.331 163.282 527.466 162.924C526.6 162.565 525.672 162.38 524.735 162.38Z" fill="#B5BAC4" fill-opacity="0.03"/>
<path d="M680.405 162.38H630.465C629.528 162.38 628.6 162.564 627.734 162.923C626.868 163.281 626.081 163.807 625.418 164.469C624.755 165.132 624.23 165.918 623.871 166.784C623.512 167.65 623.328 168.578 623.328 169.515V219.46C623.328 220.397 623.512 221.325 623.871 222.19C624.23 223.056 624.755 223.843 625.418 224.506C626.081 225.168 626.868 225.693 627.734 226.052C628.6 226.41 629.528 226.594 630.465 226.594H680.405C684.35 226.594 687.542 223.4 687.542 219.46V169.515C687.542 168.578 687.357 167.65 686.999 166.784C686.64 165.918 686.114 165.132 685.452 164.469C684.789 163.807 684.002 163.281 683.136 162.923C682.27 162.564 681.342 162.38 680.405 162.38Z" fill="#FB9C0C" fill-opacity="0.18"/>
<path d="M135.56 244.829H85.6157C83.7234 244.829 81.9086 245.581 80.5705 246.919C79.2324 248.257 78.4807 250.072 78.4807 251.964V301.908C78.4807 303.801 79.2324 305.615 80.5705 306.953C81.9086 308.292 83.7234 309.043 85.6157 309.043H135.56C137.452 309.043 139.267 308.292 140.605 306.953C141.943 305.615 142.695 303.801 142.695 301.908V251.964C142.695 250.072 141.943 248.257 140.605 246.919C139.267 245.581 137.452 244.829 135.56 244.829Z" fill="#6F39DE" fill-opacity="0.15"/>
<g clip-path="url(#clip2_14132_13167)">
<path d="M132.338 260.033L111.694 296.948C111.268 297.71 110.173 297.714 109.74 296.956L88.6873 260.037C88.216 259.21 88.9227 258.209 89.8593 258.376L110.525 262.07C110.657 262.094 110.792 262.094 110.924 262.07L131.157 258.382C132.091 258.212 132.801 259.205 132.338 260.033Z" fill="url(#paint0_linear_14132_13167)"/>
<path d="M120.369 253.531L105.092 256.525C104.841 256.574 104.655 256.787 104.64 257.042L103.7 272.914C103.678 273.288 104.022 273.578 104.387 273.493L108.64 272.512C109.038 272.42 109.397 272.771 109.316 273.171L108.052 279.359C107.967 279.775 108.358 280.131 108.765 280.008L111.392 279.21C111.799 279.086 112.19 279.443 112.104 279.86L110.096 289.58C109.97 290.188 110.779 290.519 111.116 289.998L111.342 289.65L123.79 264.807C123.998 264.391 123.639 263.916 123.182 264.005L118.804 264.85C118.393 264.929 118.043 264.546 118.159 264.143L121.016 254.237C121.132 253.834 120.781 253.451 120.369 253.531Z" fill="url(#paint1_linear_14132_13167)"/>
</g>
<path d="M213.395 244.829H163.451C161.559 244.829 159.744 245.581 158.406 246.919C157.068 248.257 156.316 250.072 156.316 251.964V301.908C156.316 303.801 157.068 305.615 158.406 306.953C159.744 308.292 161.559 309.043 163.451 309.043H213.395C215.287 309.043 217.102 308.292 218.44 306.953C219.778 305.615 220.53 303.801 220.53 301.908V251.964C220.53 250.072 219.778 248.257 218.44 246.919C217.102 245.581 215.287 244.829 213.395 244.829ZM291.229 244.829H241.285C239.393 244.829 237.578 245.581 236.24 246.919C234.902 248.257 234.15 250.072 234.15 251.964V301.908C234.15 303.801 234.902 305.615 236.24 306.953C237.578 308.292 239.393 309.043 241.285 309.043H291.229C292.166 309.043 293.094 308.859 293.96 308.5C294.825 308.142 295.612 307.616 296.274 306.953C296.937 306.291 297.462 305.504 297.821 304.639C298.179 303.773 298.364 302.845 298.363 301.908V251.964C298.364 251.027 298.179 250.099 297.821 249.234C297.462 248.368 296.937 247.582 296.274 246.919C295.612 246.256 294.825 245.731 293.96 245.372C293.094 245.014 292.166 244.829 291.229 244.829Z" fill="#B5BAC4" fill-opacity="0.06"/>
<path d="M369.064 245.154H319.119C317.313 245.154 315.581 245.872 314.304 247.149C313.027 248.426 312.309 250.159 312.309 251.965V301.909C312.309 303.715 313.027 305.447 314.304 306.724C315.581 308.001 317.313 308.719 319.119 308.719H369.064C369.958 308.719 370.844 308.543 371.67 308.201C372.496 307.859 373.247 307.357 373.88 306.725C374.512 306.092 375.014 305.341 375.356 304.515C375.698 303.689 375.874 302.803 375.874 301.909V251.965C375.874 250.158 375.157 248.426 373.88 247.149C372.602 245.871 370.87 245.154 369.064 245.154Z" stroke="#B5BAC4" stroke-opacity="0.15" stroke-width="0.783"/>
<path d="M524.735 244.829H474.791C472.899 244.829 471.084 245.581 469.746 246.919C468.408 248.257 467.656 250.072 467.656 251.964V301.908C467.656 303.801 468.408 305.615 469.746 306.953C471.084 308.292 472.899 309.043 474.791 309.043H524.735C525.672 309.043 526.6 308.859 527.466 308.5C528.331 308.142 529.118 307.616 529.78 306.953C530.443 306.291 530.968 305.504 531.327 304.639C531.685 303.773 531.87 302.845 531.87 301.908V251.964C531.87 251.027 531.685 250.099 531.327 249.234C530.968 248.368 530.443 247.582 529.78 246.919C529.118 246.256 528.331 245.731 527.466 245.372C526.6 245.014 525.672 244.829 524.735 244.829Z" fill="#B5BAC4" fill-opacity="0.09"/>
<path d="M680.405 244.829H630.465C629.528 244.829 628.6 245.013 627.734 245.371C626.868 245.73 626.081 246.255 625.418 246.918C624.755 247.58 624.23 248.367 623.871 249.233C623.512 250.099 623.328 251.027 623.328 251.964V301.908C623.328 302.845 623.512 303.773 623.871 304.639C624.23 305.505 624.755 306.292 625.418 306.954C626.081 307.617 626.868 308.143 627.734 308.501C628.6 308.859 629.528 309.044 630.465 309.043H680.405C684.35 309.043 687.542 305.849 687.542 301.908V251.964C687.542 251.027 687.357 250.099 686.999 249.233C686.64 248.367 686.114 247.58 685.452 246.918C684.789 246.255 684.002 245.73 683.136 245.371C682.27 245.013 681.342 244.829 680.405 244.829Z" fill="#B5BAC4" fill-opacity="0.12"/>
<path d="M758.237 244.829H708.297C707.359 244.829 706.431 245.013 705.565 245.371C704.699 245.73 703.913 246.255 703.25 246.918C702.587 247.58 702.061 248.367 701.703 249.233C701.344 250.099 701.16 251.027 701.16 251.964V301.908C701.16 302.845 701.344 303.773 701.703 304.639C702.061 305.505 702.587 306.292 703.25 306.954C703.913 307.617 704.699 308.143 705.565 308.501C706.431 308.859 707.359 309.044 708.297 309.043H758.237C762.182 309.043 765.373 305.849 765.373 301.908V251.964C765.373 251.027 765.189 250.099 764.831 249.233C764.472 248.367 763.946 247.58 763.283 246.918C762.621 246.255 761.834 245.73 760.968 245.371C760.102 245.013 759.174 244.829 758.237 244.829Z" fill="#00D8FF" fill-opacity="0.15"/>
<g clip-path="url(#clip3_14132_13167)">
<path d="M733.489 281.937C735.729 281.937 737.544 280.122 737.544 277.882C737.544 275.643 735.729 273.828 733.489 273.828C731.25 273.828 729.435 275.643 729.435 277.882C729.435 280.122 731.25 281.937 733.489 281.937Z" fill="#00D8FF"/>
<path d="M733.489 281.937C735.729 281.937 737.544 280.122 737.544 277.882C737.544 275.643 735.729 273.828 733.489 273.828C731.25 273.828 729.435 275.643 729.435 277.882C729.435 280.122 731.25 281.937 733.489 281.937Z" stroke="#00D8FF" stroke-width="2" stroke-miterlimit="10"/>
<path d="M733.489 269.639C738.932 269.639 743.989 270.421 747.801 271.732C752.394 273.313 755.218 275.71 755.218 277.881C755.218 280.143 752.225 282.69 747.293 284.323C743.564 285.559 738.656 286.204 733.489 286.204C728.191 286.204 723.176 285.599 719.404 284.31C714.633 282.679 711.759 280.1 711.759 277.881C711.759 275.728 714.456 273.35 718.985 271.771C722.812 270.438 727.993 269.639 733.489 269.639Z" stroke="#00D8FF" stroke-width="2" stroke-miterlimit="10"/>
<path d="M726.314 273.785C729.033 269.07 732.236 265.08 735.278 262.433C738.943 259.244 742.43 257.996 744.31 259.08C746.269 260.209 746.981 264.075 745.932 269.165C745.138 273.013 743.246 277.586 740.664 282.063C738.018 286.652 734.987 290.694 731.987 293.318C728.191 296.637 724.52 297.837 722.599 296.729C720.733 295.653 720.021 292.13 720.914 287.417C721.67 283.432 723.567 278.546 726.314 273.785Z" stroke="#00D8FF" stroke-width="2" stroke-miterlimit="10"/>
<path d="M726.321 282.072C723.594 277.361 721.737 272.594 720.963 268.637C720.03 263.87 720.689 260.224 722.568 259.137C724.525 258.004 728.229 259.318 732.115 262.768C735.053 265.377 738.069 269.3 740.658 273.773C743.312 278.358 745.302 283.002 746.075 286.911C747.054 291.858 746.261 295.637 744.341 296.748C742.477 297.827 739.069 296.685 735.432 293.556C732.361 290.913 729.074 286.829 726.321 282.072Z" stroke="#00D8FF" stroke-width="2" stroke-miterlimit="10"/>
</g>
<path d="M135.559 327.603H85.6149C83.8087 327.603 82.0766 328.32 80.7994 329.597C79.5223 330.874 78.8048 332.606 78.8048 334.413V384.357C78.8048 386.163 79.5223 387.895 80.7994 389.173C82.0765 390.45 83.8086 391.167 85.6149 391.168H135.559C137.365 391.168 139.098 390.45 140.375 389.173C141.652 387.896 142.37 386.163 142.37 384.357V334.413C142.37 333.518 142.194 332.633 141.851 331.806C141.509 330.98 141.007 330.229 140.375 329.597C139.743 328.964 138.992 328.463 138.165 328.121C137.339 327.779 136.453 327.602 135.559 327.603Z" stroke="#B5BAC4" stroke-opacity="0.15" stroke-width="0.783"/>
<path d="M213.395 327.278H163.451C161.559 327.278 159.744 328.03 158.406 329.368C157.068 330.706 156.316 332.521 156.316 334.413V384.357C156.316 386.25 157.068 388.065 158.406 389.403C159.744 390.741 161.559 391.492 163.451 391.492H213.395C215.287 391.492 217.102 390.741 218.44 389.403C219.778 388.065 220.53 386.25 220.53 384.357V334.413C220.53 332.521 219.778 330.706 218.44 329.368C217.102 328.03 215.287 327.278 213.395 327.278ZM369.064 327.278H319.12C317.228 327.278 315.413 328.03 314.075 329.368C312.737 330.706 311.985 332.521 311.985 334.413V384.357C311.985 386.25 312.737 388.065 314.075 389.403C315.413 390.741 317.228 391.492 319.12 391.492H369.064C370.957 391.492 372.771 390.741 374.11 389.403C375.448 388.065 376.199 386.25 376.199 384.357V334.413C376.199 332.521 375.448 330.706 374.11 329.368C372.771 328.03 370.957 327.278 369.064 327.278Z" fill="#B5BAC4" fill-opacity="0.06"/>
<path d="M446.899 327.278H396.955C395.062 327.278 393.247 328.03 391.909 329.368C390.571 330.706 389.82 332.521 389.82 334.413V384.357C389.82 386.25 390.571 388.065 391.909 389.403C393.247 390.741 395.062 391.492 396.955 391.492H446.899C448.791 391.492 450.606 390.741 451.944 389.403C453.282 388.065 454.034 386.25 454.034 384.357V334.413C454.034 332.521 453.282 330.706 451.944 329.368C450.606 328.03 448.791 327.278 446.899 327.278Z" fill="#B5BAC4" fill-opacity="0.12"/>
<path d="M524.735 327.278H474.791C472.899 327.278 471.084 328.03 469.746 329.368C468.408 330.706 467.656 332.521 467.656 334.413V384.357C467.656 386.25 468.408 388.065 469.746 389.403C471.084 390.741 472.899 391.492 474.791 391.492H524.735C525.672 391.492 526.6 391.308 527.466 390.949C528.331 390.591 529.118 390.065 529.78 389.403C530.443 388.74 530.968 387.953 531.327 387.088C531.685 386.222 531.87 385.294 531.87 384.357V334.413C531.87 333.476 531.685 332.549 531.327 331.683C530.968 330.817 530.443 330.031 529.78 329.368C529.118 328.706 528.331 328.18 527.466 327.821C526.6 327.463 525.672 327.278 524.735 327.278ZM602.565 327.278H552.623C550.731 327.278 548.916 328.03 547.578 329.368C546.24 330.706 545.488 332.521 545.488 334.413V384.357C545.488 386.25 546.24 388.065 547.578 389.403C548.916 390.741 550.731 391.492 552.623 391.492H602.565C606.51 391.492 609.701 388.298 609.701 384.357V334.413C609.702 333.476 609.517 332.548 609.159 331.682C608.8 330.816 608.274 330.03 607.612 329.367C606.949 328.704 606.162 328.179 605.296 327.821C604.43 327.462 603.502 327.278 602.565 327.278Z" fill="#B5BAC4" fill-opacity="0.06"/>
<path d="M680.405 327.278H630.465C629.528 327.278 628.6 327.462 627.734 327.821C626.868 328.179 626.081 328.704 625.418 329.367C624.755 330.03 624.23 330.816 623.871 331.682C623.512 332.548 623.328 333.476 623.328 334.413V384.357C623.328 385.295 623.512 386.223 623.871 387.089C624.23 387.954 624.755 388.741 625.418 389.404C626.081 390.066 626.868 390.592 627.734 390.95C628.6 391.309 629.528 391.493 630.465 391.492H680.405C684.35 391.492 687.542 388.298 687.542 384.357V334.413C687.542 333.476 687.357 332.548 686.999 331.682C686.64 330.816 686.114 330.03 685.452 329.367C684.789 328.704 684.002 328.179 683.136 327.821C682.27 327.462 681.342 327.278 680.405 327.278Z" fill="#77A5FF" fill-opacity="0.17"/>
<path d="M246.5 104.888V100.621H263.553V104.888H257.652V120.126H252.402V104.888H246.5Z" fill="url(#paint2_linear_14132_13167)"/>
<path d="M276.135 106.716C276.084 106.081 275.844 105.586 275.416 105.23C274.995 104.875 274.353 104.697 273.491 104.697C272.941 104.697 272.491 104.764 272.14 104.897C271.795 105.024 271.54 105.199 271.373 105.421C271.207 105.643 271.121 105.897 271.115 106.183C271.102 106.418 271.144 106.63 271.239 106.821C271.342 107.005 271.501 107.173 271.718 107.326C271.936 107.472 272.213 107.605 272.552 107.726C272.89 107.846 273.293 107.954 273.759 108.049L275.369 108.392C276.454 108.621 277.384 108.923 278.156 109.297C278.929 109.672 279.562 110.113 280.053 110.621C280.545 111.123 280.906 111.688 281.136 112.316C281.372 112.945 281.494 113.63 281.5 114.373C281.494 115.656 281.171 116.742 280.532 117.63C279.894 118.519 278.98 119.196 277.792 119.659C276.611 120.123 275.19 120.354 273.529 120.354C271.824 120.354 270.336 120.103 269.065 119.602C267.8 119.1 266.816 118.329 266.114 117.288C265.418 116.24 265.066 114.9 265.06 113.269H270.118C270.15 113.865 270.3 114.367 270.569 114.773C270.837 115.18 271.214 115.488 271.699 115.697C272.191 115.907 272.775 116.011 273.452 116.011C274.021 116.011 274.497 115.942 274.88 115.802C275.263 115.662 275.554 115.469 275.752 115.221C275.95 114.973 276.052 114.691 276.058 114.373C276.052 114.075 275.953 113.815 275.761 113.592C275.576 113.364 275.27 113.161 274.842 112.983C274.414 112.799 273.836 112.627 273.108 112.469L271.153 112.049C269.416 111.675 268.046 111.049 267.043 110.173C266.047 109.291 265.552 108.088 265.558 106.564C265.552 105.326 265.884 104.243 266.554 103.316C267.232 102.383 268.167 101.656 269.362 101.135C270.562 100.615 271.939 100.354 273.491 100.354C275.075 100.354 276.445 100.618 277.601 101.145C278.757 101.672 279.648 102.415 280.274 103.373C280.906 104.326 281.225 105.44 281.232 106.716H276.135Z" fill="url(#paint3_linear_14132_13167)"/>
<path d="M57.7247 409.728H7.78058C5.88826 409.728 4.07346 410.48 2.73539 411.818C1.39732 413.156 0.645584 414.971 0.645584 416.863V466.807C0.645584 467.744 0.83015 468.672 1.18873 469.537C1.5473 470.403 2.07288 471.19 2.73544 471.852C3.398 472.515 4.18454 473.04 5.0502 473.398C5.91585 473.757 6.84364 473.941 7.78058 473.941H57.7247C58.6617 473.941 59.5895 473.757 60.4551 473.398C61.3208 473.04 62.1073 472.515 62.7699 471.852C63.4324 471.19 63.958 470.403 64.3166 469.537C64.6752 468.672 64.8597 467.744 64.8597 466.807V416.863C64.8597 414.971 64.108 413.156 62.7699 411.818C61.4319 410.48 59.6171 409.728 57.7247 409.728Z" fill="#B5BAC4" fill-opacity="0.09"/>
<path d="M135.56 409.728H85.6157C83.7234 409.728 81.9086 410.48 80.5705 411.818C79.2324 413.156 78.4807 414.971 78.4807 416.863V466.807C78.4807 467.744 78.6653 468.672 79.0238 469.537C79.3824 470.403 79.908 471.19 80.5706 471.852C81.2331 472.515 82.0197 473.04 82.8853 473.398C83.751 473.757 84.6788 473.941 85.6157 473.941H135.56C136.497 473.941 137.425 473.757 138.29 473.398C139.156 473.04 139.942 472.515 140.605 471.852C141.268 471.19 141.793 470.403 142.152 469.537C142.51 468.672 142.695 467.744 142.695 466.807V416.863C142.695 414.971 141.943 413.156 140.605 411.818C139.267 410.48 137.452 409.728 135.56 409.728Z" fill="#EB5451" fill-opacity="0.26"/>
<g clip-path="url(#clip4_14132_13167)">
<path d="M104.751 457.355C107.649 457.355 110 454.965 110 452.021V446.688H104.751C101.854 446.688 99.5022 449.077 99.5022 452.021C99.5022 454.965 101.854 457.355 104.751 457.355Z" fill="#0ACF83"/>
<path d="M99.5022 441.354C99.5022 438.41 101.854 436.021 104.751 436.021H110V446.688H104.751C101.854 446.688 99.5022 444.298 99.5022 441.354Z" fill="#A259FF"/>
<path d="M99.5022 430.688C99.5022 427.744 101.854 425.354 104.751 425.354H110V436.021H104.751C101.854 436.021 99.5022 433.632 99.5022 430.688Z" fill="#F24E1E"/>
<path d="M110 425.354H115.249C118.146 425.354 120.498 427.744 120.498 430.688C120.498 433.632 118.146 436.021 115.249 436.021H110V425.354Z" fill="#FF7262"/>
<path d="M120.498 441.354C120.498 444.298 118.146 446.688 115.249 446.688C112.352 446.688 110 444.298 110 441.354C110 438.41 112.352 436.021 115.249 436.021C118.146 436.021 120.498 438.41 120.498 441.354Z" fill="#1ABCFE"/>
</g>
<path d="M213.395 409.728H163.451C161.559 409.728 159.744 410.48 158.406 411.818C157.068 413.156 156.316 414.971 156.316 416.863V466.807C156.316 467.744 156.5 468.672 156.859 469.537C157.218 470.403 157.743 471.19 158.406 471.852C159.068 472.515 159.855 473.04 160.72 473.398C161.586 473.757 162.514 473.941 163.451 473.941H213.395C214.332 473.941 215.26 473.757 216.125 473.398C216.991 473.04 217.778 472.515 218.44 471.852C219.103 471.19 219.628 470.403 219.987 469.537C220.345 468.672 220.53 467.744 220.53 466.807V416.863C220.53 414.971 219.778 413.156 218.44 411.818C217.102 410.48 215.287 409.728 213.395 409.728ZM369.064 409.728H319.12C317.228 409.728 315.413 410.48 314.075 411.818C312.737 413.156 311.985 414.971 311.985 416.863V466.807C311.985 467.744 312.17 468.672 312.528 469.537C312.887 470.403 313.413 471.19 314.075 471.852C314.738 472.515 315.524 473.04 316.39 473.398C317.256 473.757 318.183 473.941 319.12 473.941H369.064C370.001 473.941 370.929 473.757 371.795 473.398C372.66 473.04 373.447 472.515 374.11 471.852C374.772 471.19 375.298 470.403 375.656 469.537C376.015 468.672 376.199 467.744 376.199 466.807V416.863C376.199 414.971 375.448 413.156 374.11 411.818C372.771 410.48 370.957 409.728 369.064 409.728Z" fill="#B5BAC4" fill-opacity="0.06"/>
<path d="M446.899 409.728H396.955C395.062 409.728 393.247 410.48 391.909 411.818C390.571 413.156 389.82 414.971 389.82 416.863V466.807C389.82 467.744 390.004 468.672 390.363 469.537C390.721 470.403 391.247 471.19 391.909 471.852C392.572 472.515 393.358 473.04 394.224 473.398C395.09 473.757 396.018 473.941 396.955 473.941H446.899C447.836 473.941 448.763 473.757 449.629 473.398C450.495 473.04 451.281 472.515 451.944 471.852C452.606 471.19 453.132 470.403 453.491 469.537C453.849 468.672 454.034 467.744 454.034 466.807V416.863C454.034 414.971 453.282 413.156 451.944 411.818C450.606 410.48 448.791 409.728 446.899 409.728Z" fill="#B5BAC4" fill-opacity="0.12"/>
<path d="M602.565 409.728H552.623C550.731 409.728 548.916 410.48 547.578 411.818C546.24 413.156 545.488 414.971 545.488 416.863V466.807C545.488 467.744 545.673 468.672 546.031 469.537C546.39 470.403 546.915 471.19 547.578 471.852C548.24 472.515 549.027 473.04 549.893 473.398C550.758 473.757 551.686 473.941 552.623 473.941H602.565C606.51 473.941 609.701 470.748 609.701 466.807V416.863C609.702 415.926 609.517 414.998 609.159 414.132C608.8 413.266 608.274 412.479 607.611 411.817C606.949 411.154 606.162 410.629 605.296 410.27C604.43 409.912 603.502 409.728 602.565 409.728Z" fill="#B5BAC4" fill-opacity="0.06"/>
<path d="M680.405 409.728H630.465C629.528 409.728 628.6 409.912 627.734 410.27C626.868 410.629 626.081 411.154 625.418 411.817C624.755 412.479 624.23 413.266 623.871 414.132C623.512 414.998 623.328 415.926 623.328 416.863V466.807C623.328 467.744 623.512 468.672 623.871 469.538C624.23 470.404 624.755 471.191 625.418 471.853C626.081 472.516 626.868 473.041 627.734 473.399C628.6 473.758 629.528 473.942 630.465 473.941H680.405C684.35 473.941 687.542 470.748 687.542 466.807V416.863C687.542 415.926 687.357 414.998 686.999 414.132C686.64 413.266 686.114 412.479 685.452 411.817C684.789 411.154 684.002 410.629 683.136 410.27C682.27 409.912 681.342 409.728 680.405 409.728Z" fill="#B5BAC4" fill-opacity="0.09"/>
<path d="M758.237 410.052H708.297C707.402 410.052 706.516 410.228 705.69 410.57C704.863 410.912 704.112 411.414 703.48 412.046C702.847 412.679 702.345 413.429 702.002 414.256C701.66 415.082 701.483 415.968 701.483 416.862V466.806C701.483 467.701 701.66 468.587 702.002 469.413C702.345 470.24 702.847 470.991 703.479 471.623C704.112 472.256 704.863 472.757 705.69 473.099C706.516 473.442 707.402 473.618 708.297 473.617H758.237C762 473.617 765.05 470.568 765.05 466.806V416.862C765.05 415.968 764.873 415.082 764.531 414.256C764.188 413.429 763.686 412.679 763.054 412.046C762.421 411.414 761.67 410.912 760.844 410.57C760.017 410.228 759.131 410.052 758.237 410.052Z" stroke="#B5BAC4" stroke-opacity="0.15" stroke-width="0.783"/>
<path d="M57.7247 492.177H7.78058C5.88841 492.177 4.07371 492.928 2.73567 494.266C1.39762 495.604 0.645804 497.419 0.645584 499.311V549.258C0.645584 553.196 3.84009 556.387 7.78058 556.387H57.7247C61.6652 556.387 64.8597 553.196 64.8597 549.258V499.311C64.8595 497.419 64.1077 495.604 62.7696 494.266C61.4316 492.928 59.6169 492.177 57.7247 492.177ZM213.395 492.177H163.451C161.559 492.177 159.744 492.928 158.406 494.266C157.068 495.604 156.316 497.419 156.316 499.311V549.258C156.316 553.196 159.51 556.387 163.451 556.387H213.395C217.335 556.387 220.53 553.196 220.53 549.258V499.311C220.53 497.419 219.778 495.604 218.44 494.266C217.102 492.928 215.287 492.177 213.395 492.177Z" fill="#B5BAC4" fill-opacity="0.12"/>
<path d="M291.229 492.177H241.285C239.393 492.177 237.578 492.928 236.24 494.266C234.902 495.604 234.15 497.419 234.15 499.311V549.258C234.15 553.196 237.345 556.387 241.285 556.387H291.229C295.17 556.387 298.363 553.196 298.363 549.258V499.311C298.363 497.419 297.612 495.604 296.274 494.266C294.936 492.928 293.121 492.177 291.229 492.177ZM369.064 492.177H319.12C317.228 492.177 315.413 492.928 314.075 494.266C312.737 495.604 311.985 497.419 311.985 499.311V549.258C311.985 553.196 315.18 556.387 319.12 556.387H369.064C373.005 556.387 376.199 553.196 376.199 549.258V499.311C376.199 497.419 375.447 495.604 374.109 494.266C372.771 492.928 370.957 492.177 369.064 492.177ZM524.735 492.177H474.791C472.899 492.177 471.084 492.928 469.746 494.266C468.408 495.604 467.657 497.419 467.656 499.311V549.258C467.656 553.196 470.851 556.387 474.791 556.387H524.735C528.676 556.387 531.87 553.196 531.87 549.258V499.311C531.87 497.419 531.118 495.604 529.78 494.266C528.442 492.928 526.628 492.177 524.735 492.177Z" fill="#B5BAC4" fill-opacity="0.06"/>
<path d="M680.405 492.177H630.465C629.528 492.176 628.6 492.361 627.734 492.719C626.868 493.077 626.081 493.603 625.418 494.265C624.756 494.928 624.23 495.714 623.871 496.58C623.513 497.446 623.328 498.374 623.328 499.311V549.258C623.328 553.196 626.519 556.387 630.465 556.387H680.405C684.35 556.387 687.542 553.196 687.542 549.258V499.311C687.542 498.374 687.357 497.446 686.998 496.58C686.64 495.714 686.114 494.928 685.451 494.265C684.789 493.603 684.002 493.077 683.136 492.719C682.27 492.361 681.342 492.176 680.405 492.177Z" fill="#B5BAC4" fill-opacity="0.12"/>
<path d="M134.911 0.798584H84.9667C83.0744 0.798584 81.2595 1.55029 79.9215 2.88836C78.5834 4.22643 77.8317 6.04126 77.8317 7.93358V57.8777C77.8317 59.77 78.5834 61.5848 79.9215 62.9229C81.2595 64.261 83.0744 65.0127 84.9667 65.0127H134.911C136.803 65.0127 138.618 64.261 139.956 62.9229C141.294 61.5848 142.046 59.77 142.046 57.8777V7.93358C142.046 6.04126 141.294 4.22643 139.956 2.88836C138.618 1.55029 136.803 0.798584 134.911 0.798584Z" fill="#FB9C0C" fill-opacity="0.15"/>
<path d="M103.515 23.9926H108.397V36.5025C108.391 37.6905 108.091 38.7359 107.497 39.6388C106.909 40.5358 106.096 41.2367 105.056 41.7416C104.022 42.2406 102.831 42.4901 101.483 42.4901C100.313 42.4901 99.2437 42.2881 98.2754 41.8842C97.3072 41.4743 96.535 40.8328 95.9588 39.9596C95.3826 39.0805 95.0975 37.94 95.1034 36.5381H100.057C100.075 36.9955 100.152 37.3816 100.289 37.6964C100.432 38.0112 100.628 38.2488 100.877 38.4092C101.133 38.5637 101.441 38.6409 101.804 38.6409C102.172 38.6409 102.481 38.5607 102.73 38.4003C102.986 38.2399 103.179 38.0023 103.31 37.6875C103.44 37.3667 103.509 36.9717 103.515 36.5025V23.9926Z" fill="url(#paint4_linear_14132_13167)"/>
<path d="M120.582 29.6951C120.534 29.1011 120.312 28.6378 119.914 28.3051C119.522 27.9725 118.925 27.8062 118.123 27.8062C117.612 27.8062 117.193 27.8686 116.866 27.9933C116.546 28.1121 116.308 28.2754 116.154 28.4833C115.999 28.6913 115.919 28.9289 115.913 29.1962C115.901 29.4159 115.94 29.6149 116.029 29.7931C116.124 29.9654 116.272 30.1228 116.474 30.2654C116.676 30.402 116.935 30.5267 117.25 30.6396C117.564 30.7525 117.939 30.8534 118.372 30.9425L119.869 31.2633C120.879 31.4772 121.743 31.7593 122.462 32.1098C123.181 32.4602 123.769 32.8731 124.226 33.3483C124.684 33.8175 125.019 34.3462 125.233 34.9343C125.453 35.5223 125.566 36.1639 125.572 36.8589C125.566 38.0588 125.266 39.0745 124.672 39.9061C124.078 40.7377 123.228 41.3704 122.123 41.804C121.024 42.2376 119.703 42.4544 118.158 42.4544C116.572 42.4544 115.188 42.2198 114.006 41.7505C112.83 41.2813 111.915 40.5595 111.262 39.5854C110.614 38.6053 110.288 37.3519 110.282 35.8253H114.986C115.016 36.3837 115.156 36.8529 115.405 37.2331C115.655 37.6133 116.005 37.9014 116.457 38.0974C116.914 38.2934 117.457 38.3914 118.087 38.3914C118.616 38.3914 119.058 38.3261 119.415 38.1954C119.771 38.0647 120.041 37.8835 120.226 37.6519C120.41 37.4202 120.505 37.1559 120.511 36.8589C120.505 36.5797 120.413 36.3361 120.234 36.1282C120.062 35.9144 119.777 35.7243 119.379 35.558C118.981 35.3857 118.443 35.2253 117.766 35.0768L115.949 34.6848C114.333 34.3343 113.059 33.7492 112.126 32.9295C111.2 32.1038 110.739 30.9782 110.745 29.5526C110.739 28.3942 111.048 27.3815 111.672 26.5142C112.301 25.641 113.172 24.9609 114.282 24.4738C115.399 23.9867 116.679 23.7432 118.123 23.7432C119.596 23.7432 120.87 23.9897 121.945 24.4827C123.02 24.9757 123.849 25.6707 124.431 26.5677C125.019 27.4587 125.316 28.5012 125.322 29.6951H120.582Z" fill="url(#paint5_linear_14132_13167)"/>
<path d="M289.932 78.6338H239.988C238.096 78.6338 236.281 79.3855 234.943 80.7236C233.605 82.0617 232.853 83.8765 232.853 85.7688V135.712C232.853 137.604 233.605 139.419 234.943 140.757C236.281 142.095 238.096 142.847 239.988 142.847H289.932C291.824 142.847 293.639 142.095 294.977 140.757C296.315 139.419 297.067 137.604 297.067 135.712V85.7688C297.067 83.8765 296.315 82.0617 294.977 80.7236C293.639 79.3855 291.824 78.6338 289.932 78.6338Z" fill="#0893F0" fill-opacity="0.1"/>
<path d="M758.237 0.798585H708.297C707.359 0.798149 706.431 0.982374 705.565 1.34077C704.699 1.69916 703.913 2.22469 703.25 2.8873C702.587 3.54991 702.061 4.33662 701.703 5.20249C701.344 6.06835 701.16 6.9964 701.16 7.93358V57.8777C701.16 58.8149 701.344 59.7429 701.703 60.6088C702.061 61.4747 702.587 62.2614 703.25 62.924C703.913 63.5866 704.699 64.1121 705.565 64.4705C706.431 64.8289 707.359 65.0131 708.297 65.0127H758.237C762.182 65.0127 765.373 61.8182 765.373 57.8777V7.93358C765.373 6.9964 765.189 6.06835 764.831 5.20249C764.472 4.33662 763.946 3.54991 763.283 2.8873C762.621 2.22469 761.834 1.69916 760.968 1.34077C760.102 0.982374 759.174 0.798149 758.237 0.798585Z" fill="#B5BAC4" fill-opacity="0.09"/>
<path d="M680.405 0.798585H630.465C629.528 0.798149 628.6 0.982374 627.734 1.34077C626.868 1.69916 626.081 2.22469 625.418 2.8873C624.755 3.54991 624.23 4.33662 623.871 5.20249C623.512 6.06835 623.328 6.9964 623.328 7.93358V57.8777C623.328 58.8149 623.512 59.7429 623.871 60.6088C624.23 61.4747 624.755 62.2614 625.418 62.924C626.081 63.5866 626.868 64.1121 627.734 64.4705C628.6 64.8289 629.528 65.0131 630.465 65.0127H680.405C684.35 65.0127 687.542 61.8182 687.542 57.8777V7.93358C687.542 6.9964 687.357 6.06835 686.999 5.20249C686.64 4.33662 686.114 3.54991 685.452 2.8873C684.789 2.22469 684.002 1.69916 683.136 1.34077C682.27 0.982374 681.342 0.798149 680.405 0.798585Z" fill="#B5BAC4" fill-opacity="0.08"/>
<path d="M57.7247 2.74487H7.78058C5.88826 2.74487 4.07346 3.49658 2.73539 4.83465C1.39732 6.17272 0.645584 7.98755 0.645584 9.87987V59.824C0.645584 61.7163 1.39732 63.5311 2.73539 64.8692C4.07346 66.2073 5.88826 66.959 7.78058 66.959H57.7247C59.6171 66.959 61.4319 66.2073 62.7699 64.8692C64.108 63.5311 64.8597 61.7163 64.8597 59.824V9.87987C64.8597 7.98755 64.108 6.17272 62.7699 4.83465C61.4319 3.49658 59.6171 2.74487 57.7247 2.74487Z" fill="#B5BAC4" fill-opacity="0.05"/>
<path d="M41.5367 204.618L38.1134 194.203L47.0703 187.767H35.994L32.5716 177.348H43.6479L47.0745 187.767C48.0653 190.8 48.0608 194.071 47.0616 197.103C46.0624 200.134 44.1208 202.766 41.5201 204.616L41.5367 204.618ZM23.618 204.618L32.5749 211.057L41.5367 204.618L32.5799 198.182L23.618 204.618ZM18.0811 187.763C15.9865 194.137 18.4176 200.886 23.6155 204.62V204.618L27.0388 194.203L18.0819 187.763L29.1566 187.767L32.5716 177.348H21.4886L18.0811 187.763Z" fill="#8A8AB5"/>
<path d="M602.565 78.9585H552.621C551.727 78.9585 550.841 79.1347 550.015 79.477C549.189 79.8192 548.438 80.321 547.806 80.9534C547.173 81.5859 546.672 82.3367 546.329 83.163C545.987 83.9894 545.811 84.875 545.811 85.7694V135.714C545.811 136.608 545.987 137.493 546.329 138.32C546.672 139.146 547.173 139.897 547.806 140.529C548.438 141.162 549.189 141.663 550.015 142.005C550.841 142.348 551.727 142.524 552.621 142.524H602.565C606.328 142.524 609.378 139.475 609.378 135.714V85.7694C609.378 84.8748 609.202 83.989 608.859 83.1625C608.517 82.3361 608.015 81.5852 607.382 80.9527C606.749 80.3203 605.998 79.8186 605.172 79.4764C604.345 79.1343 603.459 78.9583 602.565 78.9585Z" stroke="#B5BAC4" stroke-opacity="0.15" stroke-width="0.783"/>
<path d="M524.735 78.6338H474.791C472.899 78.6338 471.084 79.3855 469.746 80.7236C468.408 82.0617 467.656 83.8765 467.656 85.7688V135.712C467.656 137.604 468.408 139.419 469.746 140.757C471.084 142.095 472.899 142.847 474.791 142.847H524.735C525.672 142.847 526.6 142.663 527.466 142.304C528.331 141.945 529.118 141.42 529.78 140.757C530.443 140.095 530.968 139.308 531.327 138.442C531.685 137.577 531.87 136.649 531.87 135.712V85.7688C531.87 84.8318 531.685 83.9041 531.327 83.0384C530.968 82.1727 530.443 81.3862 529.78 80.7236C529.118 80.0611 528.331 79.5355 527.466 79.1769C526.6 78.8184 525.672 78.6338 524.735 78.6338Z" fill="#EB5451" fill-opacity="0.1"/>
<path d="M517.596 112.188C517.596 110.958 517.48 109.689 517.281 108.5H500.115V115.518H509.946C509.748 116.638 509.323 117.705 508.695 118.653C508.068 119.601 507.252 120.41 506.299 121.029L512.167 125.589C515.615 122.378 517.596 117.699 517.596 112.188Z" fill="#EB5451"/>
<path d="M500.115 129.951C505.03 129.951 509.158 128.325 512.167 125.549L506.299 121.029C504.674 122.139 502.569 122.774 500.115 122.774C495.357 122.774 491.354 119.562 489.887 115.28L483.861 119.919C485.373 122.934 487.694 125.47 490.564 127.241C493.435 129.013 496.742 129.951 500.115 129.951ZM489.887 115.24C489.133 112.975 489.133 110.527 489.887 108.262L483.853 103.583C481.275 108.738 481.275 114.804 483.853 119.919L489.887 115.24ZM500.115 100.768C502.71 100.734 505.214 101.715 507.094 103.504L512.283 98.27C508.992 95.1774 504.633 93.5122 500.115 93.552C493.219 93.552 486.953 97.4378 483.861 103.583L489.887 108.262C491.354 103.94 495.357 100.768 500.115 100.768Z" fill="#EB5451"/>
<path d="M369.064 2.74487H319.12C317.228 2.74487 315.413 3.49658 314.075 4.83465C312.737 6.17272 311.985 7.98755 311.985 9.87987V59.824C311.985 61.7163 312.737 63.5311 314.075 64.8692C315.413 66.2073 317.228 66.959 319.12 66.959H369.064C370.957 66.959 372.771 66.2073 374.11 64.8692C375.448 63.5311 376.199 61.7163 376.199 59.824V9.87987C376.199 7.98755 375.448 6.17272 374.11 4.83465C372.771 3.49658 370.957 2.74487 369.064 2.74487Z" fill="#B5BAC4" fill-opacity="0.02"/>
</g>
<defs>
<linearGradient id="paint0_linear_14132_13167" x1="88.1733" y1="257.057" x2="113.866" y2="291.95" gradientUnits="userSpaceOnUse">
<stop stop-color="#41D1FF"/>
<stop offset="1" stop-color="#BD34FE"/>
</linearGradient>
<linearGradient id="paint1_linear_14132_13167" x1="109.339" y1="254.344" x2="113.987" y2="286.227" gradientUnits="userSpaceOnUse">
<stop stop-color="#FFEA83"/>
<stop offset="0.0833333" stop-color="#FFDD35"/>
<stop offset="1" stop-color="#FFA800"/>
</linearGradient>
<linearGradient id="paint2_linear_14132_13167" x1="245.772" y1="94.4241" x2="277.947" y2="130.697" gradientUnits="userSpaceOnUse">
<stop stop-color="#0893F0"/>
<stop offset="1" stop-color="#007ACC"/>
</linearGradient>
<linearGradient id="paint3_linear_14132_13167" x1="245.772" y1="94.4241" x2="277.947" y2="130.697" gradientUnits="userSpaceOnUse">
<stop stop-color="#0893F0"/>
<stop offset="1" stop-color="#007ACC"/>
</linearGradient>
<linearGradient id="paint4_linear_14132_13167" x1="94.8182" y1="18.1951" x2="125.098" y2="50.041" gradientUnits="userSpaceOnUse">
<stop stop-color="#FFDF07"/>
<stop offset="1" stop-color="#D8BF1C"/>
</linearGradient>
<linearGradient id="paint5_linear_14132_13167" x1="94.8182" y1="18.1951" x2="125.098" y2="50.041" gradientUnits="userSpaceOnUse">
<stop stop-color="#FFDF07"/>
<stop offset="1" stop-color="#D8BF1C"/>
</linearGradient>
<clipPath id="clip0_14132_13167">
<rect width="766" height="557" fill="white"/>
</clipPath>
<clipPath id="clip1_14132_13167">
<rect width="46" height="46" fill="white" transform="translate(321.5 171.354)"/>
</clipPath>
<clipPath id="clip2_14132_13167">
<rect width="46" height="45.3268" fill="white" transform="translate(87.5001 253.354)"/>
</clipPath>
<clipPath id="clip3_14132_13167">
<rect width="46" height="40.5075" fill="white" transform="translate(710.5 257.354)"/>
</clipPath>
<clipPath id="clip4_14132_13167">
<rect width="21" height="32" fill="white" transform="translate(99.5001 425.354)"/>
</clipPath>
</defs>
</svg>
