<svg width="25" height="25" viewBox="0 0 25 25" fill="none" xmlns="http://www.w3.org/2000/svg">
<path d="M9.42979 22.9648H15.4637C20.492 22.9648 22.5033 20.9535 22.5033 15.9252V9.89128C22.5033 4.863 20.492 2.85168 15.4637 2.85168H9.42979C4.40151 2.85168 2.3902 4.863 2.3902 9.89128V15.9252C2.3902 20.9535 4.40151 22.9648 9.42979 22.9648Z" stroke="#8B8C91" stroke-width="1.50848" stroke-linecap="round" stroke-linejoin="round"/>
<path d="M15.9665 19.4449C17.0727 19.4449 17.9778 18.5398 17.9778 17.4336V8.38271C17.9778 7.27649 17.0727 6.3714 15.9665 6.3714C14.8603 6.3714 13.9552 7.27649 13.9552 8.38271V17.4336C13.9552 18.5398 14.8502 19.4449 15.9665 19.4449Z" stroke="#8B8C91" stroke-width="1.50848" stroke-linecap="round" stroke-linejoin="round"/>
<path d="M8.92696 19.445C10.0332 19.445 10.9383 18.5399 10.9383 17.4337V13.9139C10.9383 12.8077 10.0332 11.9026 8.92696 11.9026C7.82074 11.9026 6.91565 12.8077 6.91565 13.9139V17.4337C6.91565 18.5399 7.81068 19.445 8.92696 19.445Z" stroke="#8B8C91" stroke-width="1.50848" stroke-linecap="round" stroke-linejoin="round"/>
</svg>
