<svg width="28" height="29" viewBox="0 0 28 29" fill="none" xmlns="http://www.w3.org/2000/svg">
<path opacity="0.4" d="M18.8808 3.08618H9.38609C5.26188 3.08618 2.80322 5.54484 2.80322 9.66905V19.1525C2.80322 23.288 5.26188 25.7466 9.38609 25.7466H18.8695C22.9937 25.7466 25.4524 23.288 25.4524 19.1638V9.66905C25.4637 5.54484 23.005 3.08618 18.8808 3.08618Z" fill="white"/>
<path d="M18.6655 13.5666H14.9832V9.88431C14.9832 9.41977 14.598 9.03455 14.1334 9.03455C13.6689 9.03455 13.2837 9.41977 13.2837 9.88431V13.5666H9.60135C9.13681 13.5666 8.75159 13.9519 8.75159 14.4164C8.75159 14.8809 9.13681 15.2662 9.60135 15.2662H13.2837V18.9485C13.2837 19.413 13.6689 19.7983 14.1334 19.7983C14.598 19.7983 14.9832 19.413 14.9832 18.9485V15.2662H18.6655C19.1301 15.2662 19.5153 14.8809 19.5153 14.4164C19.5153 13.9519 19.1301 13.5666 18.6655 13.5666Z" fill="white"/>
</svg>
