<svg width="21" height="21" viewBox="0 0 21 21" fill="none" xmlns="http://www.w3.org/2000/svg">
<path d="M18.5319 9.39528V3.59745C18.5319 2.31852 17.9863 1.80695 16.6306 1.80695H13.186C11.8303 1.80695 11.2847 2.31852 11.2847 3.59745V9.39528C11.2847 10.6742 11.8303 11.1858 13.186 11.1858H16.6306C17.9863 11.1858 18.5319 10.6742 18.5319 9.39528Z" fill="white"/>
<path d="M9.5795 11.271V17.0689C9.5795 18.3478 9.03382 18.8594 7.67815 18.8594H4.23356C2.87789 18.8594 2.33221 18.3478 2.33221 17.0689V11.271C2.33221 9.9921 2.87789 9.48053 4.23356 9.48053H7.67815C9.03382 9.48053 9.5795 9.9921 9.5795 11.271Z" fill="white"/>
<path d="M18.5319 17.0689V14.6816C18.5319 13.4026 17.9863 12.8911 16.6306 12.8911H13.186C11.8303 12.8911 11.2847 13.4026 11.2847 14.6816V17.0689C11.2847 18.3478 11.8303 18.8594 13.186 18.8594H16.6306C17.9863 18.8594 18.5319 18.3478 18.5319 17.0689Z" fill="white"/>
<path d="M9.5795 5.98479V3.59745C9.5795 2.31852 9.03382 1.80695 7.67815 1.80695H4.23356C2.87789 1.80695 2.33221 2.31852 2.33221 3.59745V5.98479C2.33221 7.26372 2.87789 7.77529 4.23356 7.77529H7.67815C9.03382 7.77529 9.5795 7.26372 9.5795 5.98479Z" fill="white"/>
</svg>
