<svg width="23" height="23" viewBox="0 0 23 23" fill="none" xmlns="http://www.w3.org/2000/svg">
<path d="M20.1298 10.1665V3.88757C20.1298 2.50251 19.5388 1.94849 18.0706 1.94849H14.3402C12.872 1.94849 12.2811 2.50251 12.2811 3.88757V10.1665C12.2811 11.5516 12.872 12.1056 14.3402 12.1056H18.0706C19.5388 12.1056 20.1298 11.5516 20.1298 10.1665Z" fill="white"/>
<path d="M10.4344 12.1979V18.4769C10.4344 19.8619 9.84342 20.416 8.37525 20.416H4.64482C3.17665 20.416 2.58569 19.8619 2.58569 18.4769V12.1979C2.58569 10.8129 3.17665 10.2589 4.64482 10.2589H8.37525C9.84342 10.2589 10.4344 10.8129 10.4344 12.1979Z" fill="white"/>
<path d="M20.1298 18.4769V15.8914C20.1298 14.5064 19.5388 13.9523 18.0706 13.9523H14.3402C12.872 13.9523 12.2811 14.5064 12.2811 15.8914V18.4769C12.2811 19.8619 12.872 20.416 14.3402 20.416H18.0706C19.5388 20.416 20.1298 19.8619 20.1298 18.4769Z" fill="white"/>
<path d="M10.4344 6.47302V3.88757C10.4344 2.50251 9.84342 1.94849 8.37525 1.94849H4.64482C3.17665 1.94849 2.58569 2.50251 2.58569 3.88757V6.47302C2.58569 7.85809 3.17665 8.41211 4.64482 8.41211H8.37525C9.84342 8.41211 10.4344 7.85809 10.4344 6.47302Z" fill="white"/>
</svg>
