<svg width="29" height="29" viewBox="0 0 29 29" fill="none" xmlns="http://www.w3.org/2000/svg">
<path d="M19.6354 27.1875C20.8032 27.1875 21.75 26.2408 21.75 25.0729C21.75 23.9051 20.8032 22.9583 19.6354 22.9583C18.4675 22.9583 17.5208 23.9051 17.5208 25.0729C17.5208 26.2408 18.4675 27.1875 19.6354 27.1875Z" fill="white"/>
<path d="M9.96877 27.1875C11.1366 27.1875 12.0834 26.2408 12.0834 25.0729C12.0834 23.9051 11.1366 22.9583 9.96877 22.9583C8.80092 22.9583 7.85419 23.9051 7.85419 25.0729C7.85419 26.2408 8.80092 27.1875 9.96877 27.1875Z" fill="white"/>
<path opacity="0.4" d="M5.84835 4.76083L5.60669 7.72125C5.55835 8.28916 6.00544 8.76041 6.57336 8.76041H25.0729C25.5804 8.76041 26.0034 8.37374 26.0396 7.86624C26.1967 5.72749 24.5654 3.9875 22.4267 3.9875H7.60043C7.4796 3.45583 7.23793 2.94833 6.86335 2.52541C6.27126 1.88499 5.42544 1.51041 4.55544 1.51041H2.41669C1.92127 1.51041 1.51044 1.92125 1.51044 2.41666C1.51044 2.91208 1.92127 3.32291 2.41669 3.32291H4.51919C4.89378 3.32291 5.24419 3.48 5.49794 3.74584C5.75169 4.02375 5.87252 4.38625 5.84835 4.76083Z" fill="white"/>
<path d="M24.7829 10.5729H6.24707C5.73957 10.5729 5.32873 10.9596 5.2804 11.455L4.8454 16.7112C4.67623 18.7654 6.2954 20.5417 8.36165 20.5417H21.7983C23.6108 20.5417 25.2058 19.0554 25.3387 17.2429L25.7375 11.6C25.7858 11.0442 25.3508 10.5729 24.7829 10.5729Z" fill="white"/>
</svg>
