<svg width="23" height="24" viewBox="0 0 23 24" fill="none" xmlns="http://www.w3.org/2000/svg">
<path d="M8.31043 21.1546H13.8507C18.4676 21.1546 20.3143 19.3079 20.3143 14.691V9.15076C20.3143 4.53388 18.4676 2.68713 13.8507 2.68713H8.31043C3.69355 2.68713 1.8468 4.53388 1.8468 9.15076V14.691C1.8468 19.3079 3.69355 21.1546 8.31043 21.1546Z" stroke="#8B8C91" stroke-width="1.38506" stroke-linecap="round" stroke-linejoin="round"/>
<path d="M14.3123 17.9228C15.328 17.9228 16.1591 17.0917 16.1591 16.076V7.76563C16.1591 6.74992 15.328 5.91888 14.3123 5.91888C13.2966 5.91888 12.4656 6.74992 12.4656 7.76563V16.076C12.4656 17.0917 13.2874 17.9228 14.3123 17.9228Z" stroke="#8B8C91" stroke-width="1.38506" stroke-linecap="round" stroke-linejoin="round"/>
<path d="M7.8487 17.9228C8.86442 17.9228 9.69545 17.0918 9.69545 16.0761V12.8442C9.69545 11.8285 8.86442 10.9975 7.8487 10.9975C6.83299 10.9975 6.00195 11.8285 6.00195 12.8442V16.0761C6.00195 17.0918 6.82376 17.9228 7.8487 17.9228Z" stroke="#8B8C91" stroke-width="1.38506" stroke-linecap="round" stroke-linejoin="round"/>
</svg>
