<svg width="28" height="28" viewBox="0 0 28 28" fill="none" xmlns="http://www.w3.org/2000/svg">
<path d="M18.9584 26.25C20.0859 26.25 21 25.3359 21 24.2083C21 23.0807 20.0859 22.1667 18.9584 22.1667C17.8308 22.1667 16.9167 23.0807 16.9167 24.2083C16.9167 25.3359 17.8308 26.25 18.9584 26.25Z" fill="white"/>
<path d="M9.62498 26.25C10.7526 26.25 11.6666 25.3359 11.6666 24.2083C11.6666 23.0807 10.7526 22.1667 9.62498 22.1667C8.4974 22.1667 7.58331 23.0807 7.58331 24.2083C7.58331 25.3359 8.4974 26.25 9.62498 26.25Z" fill="white"/>
<path opacity="0.4" d="M5.64664 4.59666L5.41331 7.45499C5.36665 8.00333 5.79832 8.45833 6.34665 8.45833H24.2083C24.6983 8.45833 25.1066 8.08499 25.1416 7.59499C25.2933 5.52999 23.7183 3.85 21.6533 3.85H7.3383C7.22164 3.33667 6.9883 2.84666 6.62664 2.43832C6.05497 1.81999 5.23832 1.45833 4.39832 1.45833H2.33331C1.85498 1.45833 1.45831 1.85499 1.45831 2.33333C1.45831 2.81166 1.85498 3.20833 2.33331 3.20833H4.36332C4.72499 3.20833 5.06332 3.36 5.30832 3.61667C5.55332 3.885 5.66998 4.235 5.64664 4.59666Z" fill="white"/>
<path d="M23.9284 10.2083H6.03169C5.54169 10.2083 5.14502 10.5817 5.09836 11.06L4.67835 16.135C4.51502 18.1183 6.07836 19.8333 8.07336 19.8333H21.0467C22.7967 19.8333 24.3367 18.3983 24.465 16.6483L24.85 11.2C24.8967 10.6633 24.4767 10.2083 23.9284 10.2083Z" fill="white"/>
</svg>
